<svg xmlns="http://www.w3.org/2000/svg" xmlns:xlink="http://www.w3.org/1999/xlink" version="1.1" x="0px" y="0px" viewBox="0 0 100 125" enable-background="new 0 0 100 100" xml:space="preserve"><path d="M76.16,49.73c-2.019-0.968-4.324-1.497-6.703-1.595c0.635-4.074,0.143-8.172-1.535-11.673  c-0.266-0.558-0.842-0.886-1.467-0.848c-2.883,0.221-5.723,1.181-8.313,2.724c-1.605-3.75-4.113-6.957-7.296-9.133  c-0.511-0.35-1.183-0.35-1.694,0c-3.184,2.179-5.693,5.389-7.299,9.141c-2.59-1.543-5.426-2.511-8.309-2.731  c-0.619-0.047-1.199,0.289-1.467,0.848c-1.679,3.501-2.17,7.598-1.535,11.671c-2.379,0.099-4.686,0.629-6.703,1.597  c-0.559,0.268-0.895,0.85-0.848,1.467c0.448,5.846,4.244,11.506,9.908,14.775c3.203,1.85,6.761,2.828,10.289,2.828h0.001  c2.399,0,4.729-0.488,6.81-1.373c2.08,0.885,4.41,1.373,6.811,1.373l0,0c3.527,0,7.085-0.979,10.289-2.828  c5.664-3.27,9.461-8.932,9.907-14.775C77.055,50.58,76.718,49.998,76.16,49.73z M65.638,38.725  c1.912,4.865,1.313,10.905-1.648,16.031c-2.114,3.666-5.245,6.492-8.743,8.102c3.088-3.982,4.887-9.225,4.887-14.728  c0-2.379-0.338-4.708-0.967-6.91C61.184,39.929,63.387,39.062,65.638,38.725z M50,32.304c4.424,3.485,7.133,9.443,7.133,15.825  c0,6.38-2.709,12.337-7.133,15.822c-4.424-3.484-7.133-9.443-7.133-15.822C42.867,41.749,45.576,35.791,50,32.304z M34.362,38.725  c2.251,0.338,4.452,1.211,6.47,2.503c-0.627,2.199-0.965,4.526-0.965,6.901c0,5.498,1.797,10.736,4.879,14.718  c-3.495-1.607-6.623-4.43-8.736-8.092C33.049,49.628,32.449,43.588,34.362,38.725z M43.189,65.801c-3.002,0-6.041-0.84-8.789-2.426  c-4.471-2.582-7.57-6.861-8.293-11.357c1.567-0.596,3.309-0.91,5.097-0.92c0.521,1.77,1.255,3.508,2.208,5.158  c2.496,4.326,6.246,7.676,10.455,9.518C43.642,65.783,43.418,65.801,43.189,65.801L43.189,65.801z M65.6,63.375  c-2.749,1.586-5.788,2.426-8.789,2.426c-0.229,0-0.451-0.018-0.678-0.027c4.209-1.842,7.959-5.191,10.455-9.518  c0.953-1.65,1.686-3.387,2.207-5.158c1.789,0.012,3.529,0.324,5.096,0.922C73.17,56.514,70.07,60.793,65.6,63.375z"/><text x="0" y="115" fill="#000000" font-size="5px" font-weight="bold" font-family="'Helvetica Neue', Helvetica, Arial-Unicode, Arial, Sans-serif">Created by Sergey Demushkin</text><text x="0" y="120" fill="#000000" font-size="5px" font-weight="bold" font-family="'Helvetica Neue', Helvetica, Arial-Unicode, Arial, Sans-serif">from the Noun Project</text></svg>